<svg width="76" height="28" viewBox="0 0 76 28" fill="none" xmlns="http://www.w3.org/2000/svg">
<path d="M0.66288 21.1093V0.758311C0.657023 0.717553 0.660617 0.676043 0.673622 0.636973C0.686627 0.597904 0.707982 0.56233 0.737099 0.533213C0.766215 0.504097 0.802521 0.482132 0.841591 0.469126C0.88066 0.456121 0.921926 0.452405 0.962684 0.458262H3.23612C3.27688 0.452405 3.31912 0.456121 3.35819 0.469126C3.39726 0.482132 3.43259 0.504097 3.46171 0.533213C3.49082 0.56233 3.51316 0.597904 3.52616 0.636973C3.53917 0.676043 3.54276 0.717553 3.5369 0.758311V18.8053C3.53477 18.8214 3.53558 18.8379 3.54081 18.8533C3.54603 18.8687 3.55567 18.8827 3.56718 18.8942C3.57868 18.9057 3.5918 18.9143 3.60722 18.9196C3.62263 18.9248 3.63991 18.9265 3.65604 18.9243H10.3553C10.396 18.9185 10.4383 18.9222 10.4773 18.9352C10.5164 18.9482 10.5517 18.9702 10.5808 18.9993C10.61 19.0284 10.6313 19.0638 10.6443 19.1029C10.6573 19.142 10.6619 19.1835 10.656 19.2243V21.1104C10.6617 21.1511 10.6574 21.1925 10.6443 21.2315C10.6312 21.2704 10.6089 21.3059 10.5799 21.335C10.5508 21.364 10.5153 21.386 10.4764 21.3991C10.4374 21.4121 10.396 21.4159 10.3553 21.4103H0.955849C0.91509 21.4161 0.872848 21.4124 0.833778 21.3994C0.794709 21.3864 0.759379 21.3645 0.730263 21.3353C0.701146 21.3062 0.679791 21.2708 0.666786 21.2317C0.653781 21.1926 0.650187 21.1511 0.656044 21.1104L0.66288 21.1093Z" fill="white"/>
<path d="M12.5144 21.1093V0.758311C12.5086 0.717553 12.5122 0.676043 12.5252 0.636973C12.5382 0.597904 12.5605 0.56233 12.5896 0.533213C12.6188 0.504097 12.6541 0.482132 12.6932 0.469126C12.7322 0.456121 12.7735 0.452405 12.8142 0.458262H15.0896C15.1304 0.452405 15.1717 0.456121 15.2107 0.469126C15.2498 0.482132 15.2851 0.504097 15.3142 0.533213C15.3434 0.56233 15.3657 0.597904 15.3787 0.636973C15.3917 0.676043 15.3953 0.717553 15.3894 0.758311V21.1083C15.3955 21.1491 15.3916 21.1907 15.3787 21.2299C15.3658 21.269 15.3444 21.3047 15.3152 21.3339C15.2861 21.363 15.2509 21.3849 15.2117 21.3978C15.1725 21.4108 15.1304 21.4144 15.0896 21.4083H12.8142C12.7735 21.4142 12.7322 21.4105 12.6932 21.3975C12.6541 21.3845 12.6188 21.3625 12.5896 21.3334C12.5605 21.3043 12.5382 21.2688 12.5252 21.2297C12.5122 21.1907 12.5086 21.15 12.5144 21.1093Z" fill="white"/>
<path d="M27.4761 1.77917C28.4819 2.88977 29.0089 4.35222 28.9429 5.84912V16.0251C28.9804 17.2749 28.6248 18.5048 27.9253 19.5411C27.2725 20.4915 26.2925 21.1679 25.1724 21.4412C25.1104 21.4812 22.1494 21.4812 22.0894 21.4412C20.976 21.1531 20.0036 20.4732 19.3511 19.5261C18.6611 18.4922 18.3115 17.2685 18.3511 16.0261V5.85022C18.286 4.35362 18.8124 2.89147 19.8169 1.78015C20.8423 0.781899 22.2169 0.223389 23.648 0.223389C25.079 0.223389 26.4536 0.781899 27.479 1.78015L27.4761 1.77917ZM26.0718 5.55017C26.1037 4.80747 25.8629 4.07857 25.396 3.50012C25.1774 3.25136 24.9087 3.05217 24.607 2.91565C24.3052 2.77913 23.9772 2.7085 23.646 2.7085C23.3148 2.7085 22.9878 2.77913 22.6861 2.91565C22.3843 3.05217 22.1147 3.25136 21.896 3.50012C21.4306 4.07925 21.1915 4.80784 21.2232 5.55017V16.3242C21.1916 17.0665 21.4306 17.795 21.896 18.3741C22.1147 18.6229 22.3843 18.8222 22.6861 18.9587C22.9878 19.0953 23.3148 19.1659 23.646 19.1659C23.9772 19.1659 24.3052 19.0953 24.607 18.9587C24.9087 18.8222 25.1774 18.6229 25.396 18.3741C25.8629 17.7957 26.1036 17.0669 26.0718 16.3242V5.55017Z" fill="#8AC8DA"/>
<path d="M33.2382 20.0173C32.213 18.8283 31.6822 17.2915 31.7558 15.7233V0.758311C31.7499 0.717553 31.7535 0.676043 31.7665 0.636973C31.7795 0.597904 31.8018 0.56233 31.831 0.533213C31.8601 0.504097 31.8954 0.482132 31.9345 0.469126C31.9735 0.456121 32.0148 0.452405 32.0556 0.458262H34.33C34.3707 0.452405 34.412 0.456121 34.4511 0.469126C34.4901 0.482132 34.5255 0.504097 34.5546 0.533213C34.5837 0.56233 34.606 0.597904 34.619 0.636973C34.632 0.676043 34.6356 0.717553 34.6298 0.758311V16.0213C34.5904 16.8377 34.8383 17.6423 35.33 18.2953C35.5469 18.5744 35.8267 18.7984 36.1464 18.9492C36.4661 19.1 36.8165 19.1734 37.1698 19.1633C37.5275 19.1734 37.8824 19.1002 38.2069 18.9496C38.5315 18.799 38.8168 18.575 39.0399 18.2953C39.5317 17.6423 39.7795 16.8377 39.7401 16.0213V0.758311C39.7343 0.717553 39.7379 0.676043 39.7509 0.636973C39.7639 0.597904 39.7852 0.56233 39.8143 0.533213C39.8435 0.504097 39.8788 0.482132 39.9179 0.469126C39.9569 0.456121 39.9992 0.452405 40.0399 0.458262H42.3143C42.3551 0.452405 42.3974 0.456121 42.4364 0.469126C42.4755 0.482132 42.5108 0.504097 42.5399 0.533213C42.5691 0.56233 42.5904 0.597904 42.6034 0.636973C42.6164 0.676043 42.621 0.717553 42.6151 0.758311V15.7223C42.6866 17.2934 42.1493 18.8315 41.1151 20.0164C40.6134 20.5575 40.0003 20.9835 39.3183 21.2653C38.6362 21.547 37.9013 21.6776 37.164 21.6483C36.4288 21.6793 35.6952 21.5494 35.0155 21.2675C34.3358 20.9856 33.7258 20.5586 33.2284 20.0164L33.2382 20.0173Z" fill="white"/>
<path d="M45.8524 21.1093V0.758311C45.8466 0.717553 45.8502 0.676043 45.8632 0.636973C45.8762 0.597904 45.8985 0.56233 45.9276 0.533213C45.9567 0.504097 45.9921 0.482132 46.0311 0.469126C46.0702 0.456121 46.1115 0.452405 46.1522 0.458262H48.4276C48.4684 0.452405 48.5096 0.456121 48.5487 0.469126C48.5878 0.482132 48.6241 0.504097 48.6532 0.533213C48.6823 0.56233 48.7037 0.597904 48.7167 0.636973C48.7297 0.676043 48.7333 0.717553 48.7274 0.758311V21.1083C48.7335 21.1491 48.7306 21.1907 48.7176 21.2299C48.7047 21.269 48.6824 21.3047 48.6532 21.3339C48.624 21.363 48.5888 21.3849 48.5497 21.3978C48.5105 21.4108 48.4684 21.4144 48.4276 21.4083H46.1522C46.1114 21.4144 46.0703 21.4108 46.0311 21.3978C45.992 21.3849 45.9568 21.363 45.9276 21.3339C45.8984 21.3047 45.8761 21.269 45.8632 21.2299C45.8502 21.1907 45.8463 21.1501 45.8524 21.1093Z" fill="white"/>
<path d="M61.8035 2.94313H55.0984C55.0823 2.94099 55.066 2.94266 55.0506 2.94789C55.0352 2.95311 55.0211 2.96177 55.0096 2.97328C54.9981 2.98478 54.9894 2.99888 54.9842 3.01429C54.9789 3.0297 54.9771 3.04601 54.9793 3.06214V9.55714C54.9769 9.57331 54.979 9.58985 54.9842 9.60536C54.9893 9.62087 54.998 9.63494 55.0096 9.64649C55.0211 9.65805 55.0351 9.66674 55.0506 9.67189C55.0661 9.67704 55.0823 9.67851 55.0984 9.67616H59.199C59.2398 9.6703 59.281 9.67402 59.3201 9.68702C59.3592 9.70003 59.3945 9.72199 59.4236 9.75111C59.4527 9.78023 59.4751 9.81568 59.4881 9.85475C59.5011 9.89382 59.5047 9.93545 59.4988 9.97621V11.8622C59.5047 11.903 59.5011 11.9445 59.4881 11.9835C59.4751 12.0226 59.4527 12.0582 59.4236 12.0873C59.3945 12.1164 59.3592 12.1383 59.3201 12.1513C59.281 12.1643 59.2398 12.1681 59.199 12.1622H55.0984C55.0823 12.1599 55.0661 12.1612 55.0506 12.1664C55.0351 12.1715 55.0211 12.1803 55.0096 12.1919C54.998 12.2035 54.9893 12.2175 54.9842 12.233C54.979 12.2486 54.9769 12.265 54.9793 12.2811V21.1102C54.9851 21.151 54.9815 21.1925 54.9685 21.2316C54.9555 21.2706 54.9342 21.3061 54.9051 21.3352C54.876 21.3643 54.8396 21.3863 54.8006 21.3993C54.7615 21.4123 54.7202 21.416 54.6795 21.4102H52.406C52.3653 21.4158 52.3229 21.412 52.284 21.3989C52.245 21.3859 52.2105 21.3639 52.1814 21.3348C52.1524 21.3058 52.1301 21.2703 52.117 21.2313C52.1039 21.1924 52.0996 21.151 52.1053 21.1102V0.759166C52.0994 0.718407 52.103 0.676897 52.116 0.637828C52.129 0.598758 52.1513 0.563185 52.1805 0.534068C52.2096 0.504951 52.2449 0.483108 52.284 0.470103C52.323 0.457098 52.3653 0.453382 52.406 0.459239H61.8055C61.8462 0.453382 61.8875 0.457098 61.9266 0.470103C61.9656 0.483108 62.0019 0.504951 62.031 0.534068C62.0602 0.563185 62.0815 0.598758 62.0945 0.637828C62.1075 0.676897 62.1111 0.718407 62.1053 0.759166V2.64515C62.1111 2.68599 62.1077 2.72765 62.0945 2.76673C62.0813 2.80582 62.0594 2.84128 62.0301 2.87025C62.0007 2.89922 61.9648 2.92094 61.9256 2.9336C61.8863 2.94627 61.8443 2.94947 61.8035 2.94313Z" fill="white"/>
<path d="M68.4248 21.0791V12.5201L68.3945 12.3711L64.2363 0.789111L64.207 0.669116C64.207 0.531116 64.2956 0.460131 64.4756 0.460131H66.8711C66.9488 0.453796 67.0259 0.473836 67.0908 0.517016C67.1558 0.560197 67.2043 0.623914 67.2285 0.698046L69.7725 8.95806C69.7801 8.97563 69.7926 8.99063 69.8086 9.00127C69.8246 9.01191 69.8441 9.0178 69.8633 9.01812C69.8826 9.01799 69.9008 9.01229 69.917 9.00164C69.9331 8.99099 69.9464 8.97579 69.9541 8.95806L72.498 0.698046C72.5223 0.623914 72.5708 0.560197 72.6357 0.517016C72.7007 0.473836 72.7777 0.453796 72.8555 0.460131H75.251C75.471 0.460131 75.5512 0.569111 75.4912 0.789111L71.332 12.3711L71.3018 12.5201V21.0791C71.3076 21.1199 71.304 21.1614 71.291 21.2005C71.278 21.2396 71.2557 21.275 71.2266 21.3041C71.1974 21.3332 71.1621 21.3552 71.123 21.3682C71.084 21.3812 71.0427 21.3849 71.002 21.3791H68.7246C68.6839 21.3849 68.6426 21.3812 68.6035 21.3682C68.5644 21.3552 68.5291 21.3332 68.5 21.3041C68.4709 21.275 68.4486 21.2396 68.4355 21.2005C68.4225 21.1614 68.4189 21.1199 68.4248 21.0791Z" fill="white"/>
<path d="M31.2744 27.8163C32.5617 27.8163 33.6054 26.7727 33.6054 25.4853C33.6054 24.1979 32.5617 23.1543 31.2744 23.1543C29.987 23.1543 28.9434 24.1979 28.9434 25.4853C28.9434 26.7727 29.987 27.8163 31.2744 27.8163Z" fill="#8AC8DA"/>
<path d="M28.9434 21.4392L30.7529 22.4902L32.5635 23.5411L30.7539 24.5822L28.9443 25.6232V21.4382L28.9434 21.4392Z" fill="#8AC8DA"/>
<path d="M22.1514 21.4512H28.9424V16.3252L22.1514 20.6432V21.4512Z" fill="#8AC8DA"/>
</svg>
